<mxfile host="app.diagrams.net" modified="2024-05-25T08:41:52.883Z" agent="Mozilla/5.0 (Macintosh; Intel Mac OS X 10_15_7) AppleWebKit/605.1.15 (KHTML, like Gecko) Version/16.5.1 Safari/605.1.15" version="24.4.8" etag="wLeKwpm4fxLMtQjhV7EL" type="github">
  <diagram name="PÃ¡gina-1" id="YC-qcLbrVPdn2Ec15TAA">
    <mxGraphModel>
      <root>
        <mxCell id="0" />
        <mxCell id="1" parent="0" />
      </root>
    </mxGraphModel>
  </diagram>
</mxfile>
